<svg width="15" height="24" viewBox="0 0 15 24" fill="none" xmlns="http://www.w3.org/2000/svg">
<g clip-path="url(#clip0_4248_4271)">
<path d="M7.47981 12.2693L6.22279 11.6267L7.57228 8.86201L6.4873 7.74941L3.10598 11.2143L2.1123 10.1976L6.4873 5.71484L9.28108 8.57787L7.47981 12.2693Z" fill="#00585C"/>
<path d="M7.45786 23.9998C5.80524 23.9998 4.25094 23.3404 3.08169 22.1426L2.28698 21.3286C0.812266 19.8179 0 17.8097 0 15.6733C0 13.5368 0.812266 11.5286 2.28698 10.0179C2.98455 9.30339 4.08474 9.19189 4.90403 9.75179L12.8219 15.1601C13.6845 15.7488 14.2369 16.6911 14.3399 17.7474C14.4429 18.8036 14.0801 19.8407 13.3474 20.5924L11.834 22.1426C10.666 23.3404 9.11166 23.9998 7.45904 23.9998H7.45786ZM4.0742 21.1248C4.97776 22.0503 6.17978 22.5611 7.45786 22.5611C8.73596 22.5611 9.9368 22.0515 10.8404 21.126L12.3537 19.5757C12.7879 19.1309 13.0021 18.5171 12.9412 17.8901C12.8804 17.2654 12.5527 16.7067 12.0424 16.3578L4.12336 10.9495C3.86002 10.7685 3.50421 10.8056 3.27949 11.0358C2.07046 12.2743 1.40449 13.9216 1.40449 15.6733C1.40449 17.4249 2.07046 19.0722 3.27949 20.3119L4.0742 21.126V21.1248Z" fill="#00585C"/>
<path d="M4.04079 15.9201L3.26172 17.1172L7.98972 20.346L8.76879 19.1489L4.04079 15.9201Z" fill="#00585C"/>
<path d="M4.4365 12.8109L3.65723 14.0078L10.521 18.6969L11.3003 17.5L4.4365 12.8109Z" fill="#00585C"/>
<path d="M14.0051 -0.000511062L6.96094 7.21777L7.95424 8.23491L14.9984 1.01663L14.0051 -0.000511062Z" fill="#00585C"/>
</g>
<defs>
<clipPath id="clip0_4248_4271">
<rect width="15" height="24" fill="white"/>
</clipPath>
</defs>
</svg>
