<svg width="64" height="64" viewBox="0 0 64 64" fill="none" xmlns="http://www.w3.org/2000/svg">
<g clip-path="url(#clip0_2080_290)">
<path d="M16.5709 5.00427C16.5709 5.28658 16.5565 5.52394 16.5116 5.76129C16.1415 8.18161 14.0198 10.0085 11.5712 10.0229H11.5425C9.09386 10.0085 6.97221 8.18161 6.60213 5.73073C6.57339 5.52214 6.54285 5.28478 6.54285 5.00247C6.54285 2.2423 8.79744 0 11.5569 0C14.3163 0 16.5709 2.2423 16.5709 5.00427Z" fill="#ECC660"/>
<path d="M23.1137 17.6704V32.8163C23.1137 34.271 21.4232 35.5927 19.7614 35.9937V20.2238C19.7614 19.7042 19.332 19.2582 18.7967 19.2582C18.2613 19.2582 17.832 19.7042 17.832 20.2238V59.7959C17.832 61.2506 16.6301 62.4391 15.1768 62.4391C14.4654 62.4391 13.7971 62.1568 13.2922 61.6516C12.8036 61.1607 12.5215 60.4935 12.5215 59.7959V42.7349C12.5215 42.2009 12.0922 41.7693 11.5568 41.7693C11.0215 41.7693 10.5921 42.1991 10.5921 42.7349V59.7527L10.6065 59.7671C10.6065 59.7671 10.5921 59.7815 10.5921 59.7959C10.5921 60.5079 10.3244 61.1625 9.80525 61.6677C9.31481 62.1568 8.66268 62.4391 7.95127 62.4391C6.48174 62.4391 5.28168 61.2506 5.28168 59.7959V37.033C5.28168 37.0186 5.29606 37.0024 5.29606 36.988V20.2238C5.29606 19.7042 4.85053 19.2582 4.33134 19.2582C3.81216 19.2582 3.36662 19.7042 3.36662 20.2238V35.9793C1.71924 35.5927 0 34.271 0 32.8163V17.6704C0 14.5219 2.56719 11.9541 5.72721 11.9541H17.4008C20.5465 11.9541 23.1119 14.5237 23.1119 17.6704H23.1137Z" fill="#3BA8FC"/>
<path d="M36.5981 60.0639C36.5981 60.3912 36.5532 60.7166 36.4795 61.0295C36.0502 62.7378 34.507 64.0001 32.6674 64.0001C30.5008 64.0001 28.751 62.2325 28.751 60.0657C28.751 57.8989 30.5026 56.1313 32.6674 56.1313C34.507 56.1313 36.0502 57.3937 36.4795 59.1019C36.5532 59.413 36.5981 59.7402 36.5981 60.0675V60.0639Z" fill="#3BA8FC"/>
<path d="M63.9982 10.1416C63.9695 10.5282 63.7305 10.8537 63.3748 11.0029L54.4139 14.4931V23.9083C54.1031 23.8346 53.7762 23.7896 53.4492 23.7896C53.1223 23.7896 52.7971 23.8346 52.4845 23.9083V5.22723C52.4845 4.89996 52.6623 4.58888 52.9444 4.41086C53.2264 4.23285 53.5822 4.21846 53.8786 4.3803L63.4629 9.23532C63.8042 9.41334 64.0108 9.76937 63.9964 10.1416H63.9982Z" fill="#FF697A"/>
<path d="M59.6076 52.4325C59.6076 57.1688 55.7649 61.0295 51.0186 61.0295H36.4796C36.5532 60.7184 36.5981 60.3911 36.5981 60.0639C36.5981 59.7366 36.5532 59.4111 36.4796 59.0982H51.0186C54.6978 59.0982 57.68 56.1133 57.68 52.4307C57.68 48.748 54.6978 45.7631 51.0186 45.7631H37.9635C32.7267 45.7631 28.4547 41.5015 28.4547 36.2598C28.4547 31.0182 32.7267 26.7566 37.9635 26.7566H49.6389C49.5652 27.0677 49.5203 27.3949 49.5203 27.7222C49.5203 28.0495 49.5652 28.3749 49.6389 28.6878H37.9635C33.7795 28.6878 30.3823 32.0881 30.3823 36.2598C30.3823 40.4316 33.7795 43.8337 37.9635 43.8337H51.0186C55.7667 43.8337 59.6076 47.6943 59.6076 52.4307V52.4325Z" fill="#00585C"/>
<path d="M57.3817 27.7241C57.3817 29.8927 55.6158 31.6585 53.451 31.6585C51.6114 31.6585 50.0682 30.3962 49.6388 28.6879C49.5652 28.3768 49.5203 28.0496 49.5203 27.7223C49.5203 27.395 49.5652 27.0696 49.6388 26.7567C49.9945 25.3613 51.0922 24.2626 52.4863 23.9048C52.7989 23.8311 53.124 23.7861 53.451 23.7861C53.7779 23.7861 54.1031 23.8311 54.4157 23.9048C56.1224 24.3346 57.3835 25.8792 57.3835 27.7205L57.3817 27.7241Z" fill="#3BA8FC"/>
</g>
<defs>
<clipPath id="clip0_2080_290">
<rect width="64" height="64" fill="white"/>
</clipPath>
</defs>
</svg>
