<svg width="41" height="72" viewBox="0 0 41 72" fill="none" xmlns="http://www.w3.org/2000/svg">
<g clip-path="url(#clip0_2080_383)">
<path d="M36.9959 0H4.00628C1.79939 0 0 1.79013 0 3.98566V68.0165C0 70.212 1.79939 72.0021 4.00628 72.0021H36.9959C39.2027 72.0021 41.0021 70.2141 41.0021 68.0165V3.98566C41.0021 1.79013 39.2027 0 36.9959 0ZM38.8768 68.0165C38.8768 69.0406 38.0425 69.8706 36.9959 69.8706H4.00628C2.97683 69.8706 2.12539 69.0406 2.12539 68.0165V3.98566C2.12539 2.96151 2.97468 2.11445 4.00628 2.11445H36.9959C38.0425 2.11445 38.8768 2.95937 38.8768 3.98566V68.0165Z" fill="#3A5969"/>
<path d="M36.9958 2.1145H4.00626C2.97681 2.1145 2.12537 2.95943 2.12537 3.98571V68.0165C2.12537 69.0407 2.97466 69.8707 4.00626 69.8707H36.9958C38.0425 69.8707 38.8767 69.0407 38.8767 68.0165V3.98571C38.8767 2.96156 38.0425 2.1145 36.9958 2.1145ZM17.8352 4.57033H23.1798C23.7674 4.57033 24.2435 5.04187 24.2435 5.62649C24.2435 6.21111 23.7696 6.68265 23.1798 6.68265H17.8352C17.2476 6.68265 16.7736 6.21111 16.7736 5.62649C16.7736 5.04187 17.2476 4.57033 17.8352 4.57033ZM30.7827 66.9582H10.2344C9.64679 66.9582 9.17067 66.4867 9.17067 65.9021C9.17067 65.3175 9.64464 64.8459 10.2344 64.8459H30.7848C31.3725 64.8459 31.8465 65.3175 31.8465 65.9021C31.8465 66.4867 31.3725 66.9582 30.7848 66.9582H30.7827Z" fill="white"/>
<path d="M24.2436 5.62647C24.2436 6.21109 23.7696 6.68263 23.1798 6.68263H17.8352C17.2476 6.68263 16.7736 6.21109 16.7736 5.62647C16.7736 5.04185 17.2476 4.57031 17.8352 4.57031H23.1798C23.7674 4.57031 24.2436 5.04185 24.2436 5.62647Z" fill="#3A5969"/>
<path d="M31.8465 65.9021C31.8465 66.4867 31.3725 66.9583 30.7849 66.9583H10.2345C9.64684 66.9583 9.17072 66.4867 9.17072 65.9021C9.17072 65.3175 9.64469 64.8459 10.2345 64.8459H30.7849C31.3725 64.8459 31.8465 65.3175 31.8465 65.9021Z" fill="#3A5969"/>
</g>
<defs>
<clipPath id="clip0_2080_383">
<rect width="41" height="72" fill="white"/>
</clipPath>
</defs>
</svg>
