<svg width="240" height="42" viewBox="0 0 240 42" fill="none" xmlns="http://www.w3.org/2000/svg">
<path d="M10.1081 9.22601L8.74568 6.93662H4.43754L5.19107 5.64361H7.98452L5.95223 2.23615L1.81916 9.22601H0L5.23675 0.509598C5.42704 0.197755 5.66299 0 6.01312 0C6.36325 0 6.5916 0.197755 6.77428 0.509598L12.0263 9.22601H10.1081Z" fill="white"/>
<path d="M14.2184 9.22601V0.121696H15.8092V9.22601H14.2184Z" fill="white"/>
<path d="M27.5767 9.22601C25.0344 9.22601 23.1543 7.22565 23.1543 4.57878C23.1543 1.93191 25.0344 0.121696 27.5767 0.121696H32.5166V1.71134H27.5767C25.9478 1.71134 24.7452 2.92829 24.7452 4.65484C24.7452 6.38139 25.9326 7.63637 27.5767 7.63637H32.5166V9.22601H27.5767Z" fill="white"/>
<path d="M44.4286 9.22601L43.0662 6.93662H38.758L39.5116 5.64361H42.305L40.2727 2.23615L36.1397 9.22601H34.3205L39.5572 0.509598C39.7475 0.197755 39.9835 0 40.3336 0C40.6838 0 40.9121 0.197755 41.0948 0.509598L46.3468 9.22601H44.4286Z" fill="white"/>
<path d="M48.4475 9.22601V0.121696H53.7223C56.295 0.121696 58.1599 1.93952 58.1599 4.57878C58.1599 7.21804 56.295 9.22601 53.7223 9.22601H48.4475ZM53.7223 7.63637C55.3664 7.63637 56.569 6.37378 56.569 4.65484C56.569 2.93589 55.3664 1.71134 53.7223 1.71134H50.0231V7.63637H53.7223Z" fill="white"/>
<path d="M60.588 9.22601V0.121696H65.8628C68.4355 0.121696 70.3003 1.93952 70.3003 4.57878C70.3003 7.21804 68.4355 9.22601 65.8628 9.22601H60.588ZM65.8628 7.63637C67.5069 7.63637 68.7095 6.37378 68.7095 4.65484C68.7095 2.93589 67.5069 1.71134 65.8628 1.71134H62.1636V7.63637H65.8628Z" fill="white"/>
<path d="M72.8197 9.22601V0.121696H74.4105V9.22601H72.8197Z" fill="white"/>
<path d="M77.204 9.22601V0.121696H85.3407V1.71134H78.7872V7.63637H85.356V9.22601H77.2116H77.204ZM79.9518 5.27092V3.93227H85.0058V5.27092H79.9518Z" fill="white"/>
<path d="M7.18544 32.3176H19.029V28.7504H7.18544V32.3176ZM0.137138 18.6193V42H4.19409V22.7037H19.9957V18.6193H0.137138Z" fill="white"/>
<path d="M30.3626 18.6193H26.2752V42H30.3626V18.6193Z" fill="white"/>
<path d="M44.9083 31.8385H57.8784V28.393H44.9083V31.8385ZM37.86 18.6193V42H58.7765V37.9156H41.9093V22.7037H58.7385V18.6193H37.8524H37.86Z" fill="white"/>
<path d="M65.5128 18.6193V42H85.3409V37.9156H69.6002V18.6193H65.5128Z" fill="white"/>
<path d="M105.04 37.9156C109.256 37.9156 112.347 34.6679 112.347 30.264C112.347 25.8602 109.256 22.7113 105.04 22.7113H95.548V37.9232H105.04V37.9156ZM91.491 42V18.6193H105.04C111.639 18.6193 116.434 23.2818 116.434 30.0663C116.434 36.8508 111.639 42 105.04 42H91.491Z" fill="white"/>
<path d="M130.021 31.8385V28.4006H140.129C142.45 28.4006 143.539 27.5943 143.539 25.5712C143.539 23.0992 141.575 22.7113 138.553 22.7113H127.06V37.9536H138.903C141.834 37.9536 143.957 37.1474 143.957 34.8656C143.957 32.9337 142.702 31.8461 140.418 31.8461H130.021V31.8385ZM122.972 42V18.6193H140.091C144.658 18.6193 147.687 20.6805 147.687 24.6661C147.687 27.6248 146.172 29.1003 144.437 29.6479C146.561 30.3249 148.106 32.1883 148.106 34.9265C148.106 39.201 145.145 42 140.578 42H122.972Z" fill="white"/>
<path d="M168.223 37.9156C172.539 37.9156 175.591 34.6679 175.591 30.264C175.591 25.8602 172.531 22.7113 168.223 22.7113H162.53C158.343 22.7113 155.253 25.8298 155.253 30.264C155.253 34.6983 158.313 37.9156 162.53 37.9156H168.223ZM162.53 42C155.999 42 151.166 36.8508 151.166 30.0663C151.166 23.2818 155.991 18.6193 162.53 18.6193H168.223C174.982 18.6193 179.678 23.2818 179.678 30.0663C179.678 36.8508 174.883 42 168.223 42H162.53Z" fill="white"/>
<path d="M199.545 37.9156C203.86 37.9156 206.913 34.6679 206.913 30.264C206.913 25.8602 203.853 22.7113 199.545 22.7113H193.851C189.665 22.7113 186.575 25.8298 186.575 30.264C186.575 34.6983 189.634 37.9156 193.851 37.9156H199.545ZM193.851 42C187.32 42 182.487 36.8508 182.487 30.0663C182.487 23.2818 187.313 18.6193 193.851 18.6193H199.545C206.304 18.6193 211 23.2818 211 30.0663C211 36.8508 206.205 42 199.545 42H193.851Z" fill="white"/>
<path d="M233.759 42L220.659 31.7092C219.951 31.1615 219.822 30.6443 219.822 30.0054C219.822 29.2981 220.012 28.7809 220.849 28.142L233.241 18.6193H239.52L224.198 30.0358L240 42H233.759ZM214.478 18.6193H218.566V42H214.478V18.6193Z" fill="white"/>
</svg>
