<svg width="177" height="130" viewBox="0 0 177 130" fill="none" xmlns="http://www.w3.org/2000/svg">
<g clip-path="url(#clip0_361_8)">
<path d="M10.715 57.3486H28.5282V51.9725H10.715V57.3486ZM0.111885 36.7269V71.9178H6.2101V42.871H29.984V36.7269H0.111885Z" fill="#D9D9D9"/>
<path d="M45.5619 36.7269H39.4179V71.9178H45.5619V36.7269Z" fill="#D9D9D9"/>
<path d="M67.4444 56.6149H86.9541V51.4337H67.4444V56.6149ZM56.8413 36.7269V71.9178H88.3068V65.7737H62.9396V42.871H88.2609V36.7269H56.8413Z" fill="#D9D9D9"/>
<path d="M98.4284 36.7269V71.9178H128.243V65.7737H104.572V36.7269H98.4284Z" fill="#D9D9D9"/>
<path d="M157.875 65.7737C164.213 65.7737 168.867 60.8791 168.867 54.2536C168.867 47.6281 164.225 42.871 157.875 42.871H143.592V65.7737H157.875ZM137.482 71.9178V36.7155H157.863C167.79 36.7155 175 43.7307 175 53.9556C175 64.1804 167.79 71.9178 157.863 71.9178H137.482Z" fill="#D9D9D9"/>
<path d="M10.6691 114.709V109.527H25.8688C29.3535 109.527 31.0042 108.312 31.0042 105.263C31.0042 101.538 28.0468 100.953 23.496 100.953H6.2101V123.902H24.0233C28.425 123.902 31.6231 122.687 31.6231 119.259C31.6231 116.359 29.7318 114.709 26.2929 114.709H10.6577H10.6691ZM0.0660324 130V94.7976H25.823C32.7007 94.7976 37.2514 97.8926 37.2514 103.899C37.2514 108.347 34.9703 110.582 32.3568 111.407C35.5549 112.427 37.8704 115.236 37.8704 119.351C37.8704 125.793 33.4113 130 26.5451 130H0.0660324Z" fill="#D9D9D9"/>
<path d="M68.1322 123.856C74.6202 123.856 79.2168 118.961 79.2168 112.336C79.2168 105.71 74.6202 100.953 68.1322 100.953H59.558C53.2649 100.953 48.611 105.653 48.611 112.336C48.611 119.019 53.2076 123.856 59.558 123.856H68.1322ZM59.558 130C49.7344 130 42.467 122.251 42.467 112.038C42.467 101.824 49.7229 94.7976 59.558 94.7976H68.1322C78.2997 94.7976 85.3608 101.813 85.3608 112.038C85.3608 122.263 78.1507 130 68.1322 130H59.558Z" fill="#D9D9D9"/>
<path d="M115.221 123.856C121.709 123.856 126.306 118.961 126.306 112.336C126.306 105.71 121.709 100.953 115.221 100.953H106.647C100.354 100.953 95.7003 105.653 95.7003 112.336C95.7003 119.019 100.297 123.856 106.647 123.856H115.221ZM106.659 130C96.8351 130 89.5677 122.251 89.5677 112.038C89.5677 101.824 96.8236 94.7976 106.659 94.7976H115.233C125.4 94.7976 132.473 101.813 132.473 112.038C132.473 122.263 125.263 130 115.233 130H106.659Z" fill="#D9D9D9"/>
<path d="M166.678 130L146.973 114.502C145.907 113.677 145.713 112.909 145.713 111.935C145.713 110.869 145.999 110.089 147.26 109.126L165.899 94.7976H175.332L152.292 111.98L176.066 129.989H166.678V130ZM137.677 94.8091H143.821V130.011H137.677V94.8091Z" fill="#D9D9D9"/>
<path d="M15.5638 13.9159L13.5119 10.4656H7.02396L8.15877 8.51688H12.3656L9.30506 3.38154L3.06929 13.9159H0.329674L8.21609 0.779473C8.50266 0.309496 8.85801 0 9.38529 0C9.91258 0 10.2565 0.298034 10.5316 0.779473L18.4409 13.9159H15.5523H15.5638Z" fill="#D9D9D9"/>
<path d="M21.7422 13.9159V0.183411H24.1379V13.9044H21.7422V13.9159Z" fill="#D9D9D9"/>
<path d="M41.8594 13.9159C38.0309 13.9159 35.1996 10.9012 35.1996 6.91209C35.1996 2.92303 38.0309 0.183411 41.8594 0.183411H49.2988V2.57914H41.8594C39.4064 2.57914 37.5953 4.4132 37.5953 7.01526C37.5953 9.61732 39.3835 11.5087 41.8594 11.5087H49.2988V13.9044H41.8594V13.9159Z" fill="#D9D9D9"/>
<path d="M67.2496 13.9159L65.1977 10.4656H58.7098L59.8446 8.51688H64.0514L60.9909 3.38154L54.7666 13.9159H52.027L59.9019 0.779473C60.1885 0.309496 60.5438 0 61.0711 0C61.5984 0 61.9423 0.298034 62.2174 0.779473L70.1267 13.9159H67.2381H67.2496Z" fill="#D9D9D9"/>
<path d="M73.3019 13.9159V0.183411H81.2457C85.1201 0.183411 87.9285 2.92303 87.9285 6.90063C87.9285 10.8782 85.1201 13.9044 81.2457 13.9044H73.3019V13.9159ZM81.2457 11.5087C83.7216 11.5087 85.5328 9.60586 85.5328 7.01526C85.5328 4.42466 83.7216 2.57914 81.2457 2.57914H75.6747V11.5087H81.2457Z" fill="#D9D9D9"/>
<path d="M91.5851 13.9159V0.183411H99.5288C103.403 0.183411 106.212 2.92303 106.212 6.90063C106.212 10.8782 103.403 13.9044 99.5288 13.9044H91.5851V13.9159ZM99.5288 11.5087C102.005 11.5087 103.816 9.60586 103.816 7.01526C103.816 4.42466 102.005 2.57914 99.5288 2.57914H93.9579V11.5087H99.5288Z" fill="#D9D9D9"/>
<path d="M109.994 13.9159V0.183411H112.39V13.9044H109.994V13.9159Z" fill="#D9D9D9"/>
<path d="M116.608 13.9159V0.183411H128.862V2.57914H118.993V11.5087H128.885V13.9044H116.62L116.608 13.9159ZM120.735 7.94375V5.92629H128.346V7.94375H120.735Z" fill="#D9D9D9"/>
</g>
<defs>
<clipPath id="clip0_361_8">
<rect width="176" height="130" fill="white" transform="translate(0.0660324)"/>
</clipPath>
</defs>
</svg>
