<svg width="65" height="68" viewBox="0 0 65 68" fill="none" xmlns="http://www.w3.org/2000/svg">
<g clip-path="url(#clip0_2080_300)">
<path d="M11.1121 56.2501C8.53814 54.0703 5.32525 51.9536 1.86075 55.4905C1.86075 55.4905 -3.28169 60.7121 3.52784 64.8808C3.52784 64.8808 15.8472 72.5233 21.8314 63.8818L64.4262 2.37779L62.8949 1.40942C62.1383 2.50559 51.2452 18.1813 50.4868 19.2774C48.6061 22.0026 46.7182 24.7295 44.8339 27.4546C42.3631 31.0257 39.8942 34.5986 37.4216 38.1714C34.9074 41.8091 32.3896 45.4486 29.8754 49.0845C27.5512 52.4432 25.2307 55.8037 22.9048 59.1588C22.4667 59.7887 22.0323 60.4205 21.5943 61.0487C19.5398 64.0006 16.0626 61.2215 14.4046 59.4684C13.657 58.6782 12.4751 57.4002 11.1121 56.2501Z" fill="#3A5969"/>
<path d="M21.8332 63.8818C15.8491 72.5251 3.52967 64.8808 3.52967 64.8808C-3.27986 60.7121 1.86258 55.4905 1.86258 55.4905C5.32527 51.9536 8.53816 54.0703 11.1139 56.2501C12.4769 57.4002 13.6571 58.6782 14.4064 59.4684C14.4064 59.4684 16.7052 62.3321 19.4891 62.3393C19.4891 62.3393 20.2838 63.8206 21.8966 63.9754" fill="#3C3C3B"/>
<path d="M18.0827 64.1355C13.1792 70.0934 4.64102 63.7648 4.64102 63.7648C-0.0832946 60.3071 3.99301 56.799 3.99301 56.799C6.74071 54.4213 8.95987 56.1618 10.7102 57.9113C13.0126 60.2099 14.6707 63.2968 18.0827 64.1355Z" fill="#575756"/>
<path d="M17.9958 64.2724C13.3023 69.9782 5.12069 63.916 5.12069 63.916C0.597297 60.6059 4.50164 57.2454 4.50164 57.2454C7.1335 54.9685 9.26034 56.6352 10.9347 58.311C13.1412 60.5105 14.7268 63.4696 17.9958 64.2724Z" fill="#C6C6C6"/>
<path d="M7.58964 56.8873C7.58964 56.8873 11.1627 62.7047 17.0962 64.9168C17.0962 64.9168 10.3337 62.4059 7.07558 58.0393C7.07558 58.0393 5.99134 56.8981 7.58964 56.8855V56.8873Z" fill="#DADADA"/>
<path d="M6.033 57.8105C6.033 57.8105 9.6061 63.628 15.5377 65.8401C15.5377 65.8401 8.77527 63.3292 5.51713 58.9643C5.51713 58.9643 4.43651 57.8213 6.033 57.8105Z" fill="#DADADA"/>
<path d="M4.56142 59.4683C4.56142 59.4683 8.77528 64.8429 14.9259 66.3674C14.9259 66.3674 7.91912 64.6395 4.1813 60.6706C4.1813 60.6706 2.97578 59.6591 4.56323 59.4683H4.56142Z" fill="#DADADA"/>
<path d="M56.5976 11.957C55.9079 11.5124 55.6437 10.6989 56.0039 10.1463L62.3355 0.478783C62.6994 -0.0755986 63.5537 -0.161996 64.2452 0.28619C64.9348 0.732575 65.2009 1.54435 64.8389 2.09693L58.5054 11.7644C58.1434 12.317 57.289 12.4034 56.5976 11.957Z" fill="#00585C"/>
<path d="M53.8843 56.25C56.4618 54.0702 59.6729 51.9535 63.1374 55.4904C63.1374 55.4904 68.2799 60.712 61.4721 64.8807C61.4721 64.8807 49.1509 72.5232 43.165 63.8817L0.573792 2.3777L2.10331 1.41113C2.85992 2.5073 13.753 18.183 14.5114 19.2792C16.3975 22.0043 18.28 24.7312 20.1625 27.4563C22.6351 31.0274 25.1058 34.6003 27.5748 38.1731C30.0926 41.8108 32.6068 45.4503 35.1228 49.0862C37.4451 52.4449 39.7675 55.8054 42.0934 59.1605C42.5297 59.7904 42.9659 60.4222 43.4039 61.0504C45.4602 64.0023 48.9373 61.2232 50.5936 59.4701C51.3411 58.6799 52.5213 57.4037 53.8843 56.25Z" fill="#3A5969"/>
<path d="M43.165 63.8818C49.151 72.5251 61.4722 64.8808 61.4722 64.8808C68.2799 60.7121 63.1374 55.4905 63.1374 55.4905C59.673 51.9536 56.4619 54.0703 53.8843 56.2501C52.5231 57.4002 51.3412 58.68 50.5936 59.4702C50.5936 59.4702 48.2948 62.3339 45.5127 62.3393C45.5127 62.3393 44.7163 63.8206 43.1053 63.9754" fill="#3C3C3B"/>
<path d="M46.9173 64.1355C51.8172 70.0934 60.3571 63.7648 60.3571 63.7648C65.0796 60.3071 61.0033 56.799 61.0033 56.799C58.2556 54.4213 56.0383 56.1618 54.2879 57.9113C51.9837 60.2099 50.3275 63.2968 46.9173 64.1355Z" fill="#575756"/>
<path d="M47.0042 64.2724C51.6977 69.9782 59.8775 63.916 59.8775 63.916C64.3991 60.6059 60.4947 57.2454 60.4947 57.2454C57.8629 54.9685 55.7378 56.6352 54.0617 58.311C51.8534 60.5105 50.2678 63.4696 47.0024 64.2724H47.0042Z" fill="#C6C6C6"/>
<path d="M57.4085 56.8872C57.4085 56.8872 53.8354 62.7046 47.902 64.9167C47.902 64.9167 54.6626 62.4058 57.9226 58.041C57.9226 58.041 59.005 56.898 57.4085 56.8872Z" fill="#DADADA"/>
<path d="M58.967 57.8105C58.967 57.8105 55.3939 63.628 49.4586 65.8401C49.4586 65.8401 56.2211 63.3292 59.481 58.9643C59.481 58.9643 60.5635 57.8231 58.967 57.8105Z" fill="#DADADA"/>
<path d="M60.4404 59.4683C60.4404 59.4683 56.2247 64.8429 50.0759 66.3674C50.0759 66.3674 57.0809 64.6395 60.8205 60.6706C60.8205 60.6706 62.0278 59.6591 60.4404 59.4683Z" fill="#DADADA"/>
<path d="M8.40059 11.957C9.09204 11.5124 9.35451 10.6988 8.9943 10.1462L2.66264 0.478762C2.30062 -0.0756197 1.44626 -0.160217 0.756622 0.286168C0.0651709 0.734354 -0.200911 1.54433 0.162915 2.09691L6.49458 11.7644C6.8584 12.317 7.71276 12.4034 8.4024 11.957H8.40059Z" fill="#00585C"/>
</g>
<defs>
<clipPath id="clip0_2080_300">
<rect width="65" height="68" fill="white"/>
</clipPath>
</defs>
</svg>
