<svg width="100" height="100" viewBox="0 0 100 100" fill="none" xmlns="http://www.w3.org/2000/svg">
<path d="M100 50.0018C100 75.2549 81.2809 96.1321 56.9632 99.52C54.6894 99.8353 52.3631 100 50.0018 100C47.276 100 44.5994 99.7828 41.9928 99.3624C18.1831 95.5295 0 74.887 0 50.0018C0 22.3873 22.3873 0 49.9982 0C77.6092 0 100 22.3873 100 50.0018Z" fill="#1877F2"/>
<path d="M56.9632 40.1461V51.0385H70.4376L68.304 65.7111H56.9632V99.5162C54.6894 99.8315 52.3631 99.9962 50.0018 99.9962C47.276 99.9962 44.5994 99.779 41.9928 99.3585V65.7111H29.5659V51.0385H41.9928V37.7112C41.9928 29.443 48.695 22.7373 56.9667 22.7373V22.7443C56.9912 22.7443 57.0122 22.7373 57.0368 22.7373H70.4411V35.4269H61.6824C59.0793 35.4269 56.9667 37.5395 56.9667 40.1426L56.9632 40.1461Z" fill="white"/>
</svg>
