<svg width="72" height="72" viewBox="0 0 72 72" fill="none" xmlns="http://www.w3.org/2000/svg">
<g clip-path="url(#clip0_2080_415)">
<path d="M48.4353 1.25885L48.3711 11.9949C48.3711 12.3966 48.1731 12.7778 47.8363 13.0107C47.6177 13.1591 47.3657 13.2409 47.1061 13.2409C46.9724 13.2409 46.8386 13.2154 46.7049 13.1719L45.8513 12.8827L30.7149 7.71173C30.2059 7.53262 29.8639 7.05672 29.8665 6.52196C29.869 5.97953 30.2161 5.50618 30.7278 5.34243L46.6998 0.0972281C46.7512 0.0716418 46.8181 0.05629 46.8772 0.0409382C46.9184 0.0332623 46.9518 0.0255864 46.9955 0.0153518C47.0623 0.00767591 47.1215 0 47.1883 0C47.2475 0 47.3143 0.0102345 47.3734 0.0179104C47.4146 0.0255864 47.448 0.0358209 47.4917 0.0434968C47.5431 0.0511727 47.592 0.0690832 47.6434 0.0946695C47.6614 0.0946695 47.6768 0.102345 47.6948 0.11258C47.736 0.13049 47.7771 0.156077 47.8208 0.179104C47.8543 0.204691 47.8877 0.220043 47.9211 0.245629C47.9622 0.271215 48.0034 0.304478 48.0368 0.33774C48.0625 0.363326 48.0857 0.388913 48.1114 0.414499C48.1602 0.465672 48.2039 0.52452 48.2451 0.583369C48.2785 0.642218 48.3119 0.708742 48.3453 0.775267C48.3711 0.834115 48.3942 0.90064 48.4122 0.967164C48.4122 0.985075 48.4199 1.0081 48.4199 1.02601C48.4353 1.10021 48.4456 1.17697 48.4431 1.25885H48.4353Z" fill="#FF697A"/>
<path d="M48.3711 11.995L48.1371 50.5127C47.7438 50.4513 47.3247 50.4231 46.8799 50.4206C46.435 50.418 46.0159 50.441 45.6226 50.4973L45.8514 12.8803L46.705 13.1694C46.8387 13.2129 46.9724 13.2385 47.1061 13.2385C47.3658 13.2385 47.6178 13.1592 47.8363 13.0082C48.1731 12.7754 48.3686 12.3941 48.3711 11.9924V11.995Z" fill="white"/>
<path d="M54.3542 52.5211C54.3388 55.1155 51.1068 57.0575 46.8387 57.0319C42.5706 57.0064 39.3644 55.026 39.3798 52.4315C39.3952 50.0955 42.005 48.2916 45.6354 47.9795L45.62 50.4997C46.016 50.4435 46.4351 50.4204 46.8773 50.423C47.3221 50.423 47.7412 50.4537 48.1346 50.5151L48.15 47.9948C51.7779 48.3505 54.3645 50.185 54.3516 52.5211H54.3542Z" fill="#053638"/>
<path d="M48.2322 35.0558L48.1551 47.9948C51.783 48.3504 54.3696 50.185 54.3567 52.521C54.3413 55.1155 51.1093 57.0575 46.8412 57.0319C42.5731 57.0063 39.3669 55.0259 39.3823 52.4315C39.3977 50.0954 42.0075 48.2916 45.6379 47.9794L45.7202 34.6387C42.6708 34.1782 39.4543 33.9325 36.1169 33.9146C15.9282 33.7944 0.0642306 42.0664 -4.82322e-05 52.7462C-0.0643271 63.4259 15.6968 71.8797 35.883 71.9999C56.0717 72.1202 71.9331 63.8558 71.9974 53.1786C72.0488 44.7607 62.2656 37.7193 48.2296 35.0558H48.2322ZM17.6715 55.9803C15.6351 55.9675 13.9845 54.3069 13.9973 52.278C14.0102 50.2515 15.6788 48.6089 17.7178 48.6217C19.7644 48.6345 21.4125 50.295 21.3997 52.324C21.3868 54.3504 19.7181 55.9931 17.6715 55.9803Z" fill="#00585C"/>
<path d="M21.3997 52.324C21.3869 54.3504 19.7182 55.9931 17.6716 55.9803C15.6352 55.9675 13.9845 54.3069 13.9974 52.2779C14.0102 50.2515 15.6789 48.6089 17.7178 48.6217C19.7645 48.6344 21.4126 50.295 21.3997 52.324Z" fill="white"/>
</g>
<defs>
<clipPath id="clip0_2080_415">
<rect width="72" height="72" fill="white"/>
</clipPath>
</defs>
</svg>
