<svg width="371" height="46" viewBox="0 0 371 46" fill="none" xmlns="http://www.w3.org/2000/svg">
<mask id="mask0_2173_492" style="mask-type:luminance" maskUnits="userSpaceOnUse" x="0" y="0" width="371" height="46">
<path d="M370.033 0H0V46H370.033V0Z" fill="white"/>
</mask>
<g mask="url(#mask0_2173_492)">
<path d="M0 0.738647H18.1199C28.6814 0.738647 35.0946 7.00443 35.0946 16.072V16.1993C35.0946 26.464 27.129 31.7874 17.1783 31.7874H9.7471V45.1085H0V0.738647ZM17.4837 23.1274C22.37 23.1274 25.1948 20.2237 25.1948 16.4031V16.2757C25.1948 11.8948 22.1664 9.55149 17.2801 9.55149H9.7471V23.1019H17.4583L17.4837 23.1274Z" fill="#231916"/>
<path d="M100.55 0.738647H120.808C126.432 0.738647 130.81 2.31783 133.711 5.24695C136.179 7.71761 137.503 11.2071 137.503 15.3843V15.5116C137.503 22.6689 133.634 27.1772 128.01 29.2658L138.826 45.1085H127.425L117.932 30.9214H110.272V45.1085H100.525V0.738647H100.55ZM120.172 22.2868C124.931 22.2868 127.628 19.7652 127.628 16.021V15.8937C127.628 11.7165 124.727 9.55149 119.968 9.55149H110.272V22.2868H120.146H120.172Z" fill="#231916"/>
<path d="M158.854 9.75526H145.366V0.738647H182.09V9.75526H168.601V45.1085H158.854V9.75526Z" fill="#231916"/>
<path d="M191.76 0.738647H212.018C217.642 0.738647 222.02 2.31783 224.921 5.24695C227.389 7.71761 228.713 11.2071 228.713 15.3843V15.5116C228.713 22.6689 224.844 27.1772 219.22 29.2658L230.036 45.1085H218.635L209.142 30.9214H201.482V45.1085H191.735V0.738647H191.76ZM211.382 22.2868C216.141 22.2868 218.864 19.7652 218.864 16.021V15.8937C218.864 11.7165 215.963 9.55149 211.204 9.55149H201.507V22.2868H211.382Z" fill="#231916"/>
<path d="M239.046 26.0819V0.738647H248.793V25.8527C248.793 33.0864 252.407 36.8051 258.362 36.8051C264.317 36.8051 267.931 33.1883 267.931 26.1584V0.738647H277.678V25.7763C277.678 39.1993 270.145 45.7962 258.235 45.7962C246.324 45.7962 239.046 39.1484 239.046 26.0819Z" fill="#231916"/>
<path d="M286.788 38.6391L292.54 31.7365C296.535 35.0222 300.709 37.1108 305.773 37.1108C309.769 37.1108 312.161 35.5316 312.161 32.9336V32.8063C312.161 30.3356 310.634 29.0621 303.228 27.1773C294.296 24.9104 288.544 22.4143 288.544 13.6269V13.4995C288.544 5.45081 295.008 0.127441 304.043 0.127441C310.507 0.127441 316.004 2.16509 320.509 5.78193L315.444 13.1429C311.525 10.4176 307.657 8.76199 303.916 8.76199C300.174 8.76199 298.215 10.4685 298.215 12.6335V12.7609C298.215 15.6645 300.124 16.6324 307.784 18.5937C316.767 20.937 321.832 24.1717 321.832 31.9148V32.0422C321.832 40.855 315.113 45.7963 305.57 45.7963C298.851 45.7963 292.082 43.453 286.763 38.69" fill="#231916"/>
<path d="M332.572 0.738647H342.319V18.2879H360.286V0.738647H370.059V45.1085H360.286V27.3045H342.319V45.1085H332.572V0.738647Z" fill="#231916"/>
</g>
<mask id="mask1_2173_492" style="mask-type:luminance" maskUnits="userSpaceOnUse" x="64" y="12" width="23" height="31">
<path d="M82.8116 13.7032C83.6006 16.3266 83.8042 19.052 83.397 21.7774C82.9898 24.4008 81.8955 26.9988 80.2667 29.1129C79.8086 29.6987 79.3251 30.2336 78.7906 30.743C78.3071 32.3477 77.5691 33.8505 76.602 35.2004C75.0496 37.3909 72.9628 39.2248 70.5705 40.4474C68.7382 41.3643 66.7786 42.0011 64.7681 42.2812C65.9642 42.5105 67.1603 42.6124 68.3564 42.5869C71.0795 42.5359 73.8026 41.9501 76.2966 40.8039C78.7652 39.6578 81.0047 38.0276 82.8371 35.99C83.3715 35.4042 83.8551 34.7929 84.3132 34.1561C85.2293 32.3477 85.9165 30.4119 86.2473 28.4252C86.7308 25.6489 86.6545 22.8726 85.9928 20.1218C85.382 17.5492 84.1859 15.0786 82.5571 12.99C82.6335 13.2192 82.7098 13.4485 82.7862 13.6777" fill="white"/>
</mask>
<g mask="url(#mask1_2173_492)">
<path d="M70.7453 3.25324L51.6089 34.593L80.7726 52.4305L99.909 21.0908L70.7453 3.25324Z" fill="url(#paint0_linear_2173_492)"/>
</g>
<mask id="mask2_2173_492" style="mask-type:luminance" maskUnits="userSpaceOnUse" x="0" y="0" width="371" height="46">
<path d="M370.033 0H0V46H370.033V0Z" fill="white"/>
</mask>
<g mask="url(#mask2_2173_492)">
<path d="M57.2615 34.1306C59.7301 35.0476 62.3259 35.3787 64.9472 35.4551C65.4562 35.4551 65.9906 35.4551 66.4996 35.4551C69.0954 35.4041 71.7167 34.9966 74.1344 33.9523C75.8904 33.1882 77.4683 32.093 78.8171 30.7685C79.1225 29.7751 79.3261 28.7818 79.4279 27.7375C79.6824 25.1649 79.2752 22.5924 78.3845 20.1727C77.4683 17.6766 76.1449 15.2314 74.5925 13.0919C73.091 11.0287 71.2332 9.24579 68.9936 7.99773C67.9248 7.4119 66.7796 6.95343 65.6089 6.62231C63.9547 7.00437 62.3768 7.64114 60.9262 8.53261C58.7121 9.90803 56.9052 11.7929 55.4037 13.9324C53.9022 16.0974 52.5788 18.4152 51.7135 20.8859C50.8483 23.382 50.5938 26.0564 51.001 28.6544C51.0773 29.1638 51.1791 29.6478 51.3064 30.1317C52.9351 31.9147 54.9965 33.2901 57.2615 34.1306Z" fill="#FAFBFB"/>
</g>
<mask id="mask3_2173_492" style="mask-type:luminance" maskUnits="userSpaceOnUse" x="51" y="30" width="28" height="13">
<path d="M51.3058 30.1318C51.8402 32.2204 52.8073 34.2071 54.1561 35.9137C55.8358 38.0532 57.999 39.7597 60.4675 40.9314C61.8418 41.5682 63.2924 42.0266 64.7685 42.3068C66.779 42.0266 68.7386 41.3899 70.5709 40.4729C72.9632 39.2503 75.05 37.4419 76.6024 35.226C77.5695 33.876 78.3075 32.3478 78.7911 30.7686C77.4423 32.0931 75.8644 33.1883 74.1084 33.9524C71.7162 35.0222 69.0949 35.4043 66.4736 35.4552C65.9646 35.4552 65.4302 35.4552 64.8957 35.4552C62.2744 35.3788 59.6786 35.0731 57.21 34.1307C54.945 33.2902 52.8836 31.8893 51.2549 30.1318H51.3058Z" fill="white"/>
</mask>
<g mask="url(#mask3_2173_492)">
<path d="M78.8174 30.1318H51.3066V42.3068H78.8174V30.1318Z" fill="url(#paint1_linear_2173_492)"/>
</g>
<mask id="mask4_2173_492" style="mask-type:luminance" maskUnits="userSpaceOnUse" x="47" y="6" width="19" height="25">
<path d="M61.2318 6.03662C58.5087 6.03662 55.862 6.80074 53.4697 8.07427C51.5101 9.11857 49.805 10.5704 48.3544 12.226C48.049 12.9392 47.82 13.6778 47.6164 14.4419C46.9293 17.0909 46.8529 19.8417 47.3873 22.5161C47.9218 25.1396 49.1433 27.6103 50.8739 29.6734C51.0266 29.8262 51.1538 29.979 51.3065 30.1573C51.1793 29.6734 51.0775 29.164 51.0012 28.68C50.594 26.082 50.8739 23.4076 51.7137 20.9115C52.579 18.4154 53.9024 16.0975 55.4039 13.9325C56.9054 11.793 58.7123 9.90816 60.9264 8.53274C62.3516 7.64127 63.9549 7.00451 65.6091 6.62245C64.2348 6.24039 62.8096 6.03662 61.359 6.03662H61.2318Z" fill="white"/>
</mask>
<g mask="url(#mask4_2173_492)">
<path d="M52.7004 -2.64831L35.7197 22.6333L59.7763 38.8183L76.757 13.5367L52.7004 -2.64831Z" fill="url(#paint2_linear_2173_492)"/>
</g>
<mask id="mask5_2173_492" style="mask-type:luminance" maskUnits="userSpaceOnUse" x="65" y="6" width="19" height="25">
<path d="M68.3824 6.24023C67.4408 6.29118 66.4992 6.41853 65.583 6.62229C66.7537 6.95341 67.8989 7.41188 68.9678 7.99771C71.2073 9.2203 73.0651 11.0287 74.5666 13.0918C76.1445 15.2568 77.4424 17.6766 78.3586 20.1727C79.2493 22.5924 79.6565 25.1649 79.402 27.7375C79.3002 28.7563 79.0966 29.7751 78.7912 30.7685C79.3002 30.2591 79.8092 29.6987 80.2673 29.1383C81.896 27.0243 82.9904 24.4263 83.3975 21.8028C83.8047 19.0774 83.6011 16.3521 82.8122 13.7286C82.7359 13.4994 82.6595 13.2701 82.5832 13.0409C82.5832 13.0154 82.5323 12.99 82.5068 12.939C80.8272 10.7995 78.6894 9.06748 76.2463 7.89583C74.0067 6.82606 71.5382 6.24023 69.0696 6.24023C68.8405 6.24023 68.6115 6.24023 68.3824 6.24023Z" fill="white"/>
</mask>
<g mask="url(#mask5_2173_492)">
<path d="M80.593 -0.75187L56.2397 10.562L68.83 37.708L93.1832 26.3942L80.593 -0.75187Z" fill="url(#paint3_linear_2173_492)"/>
</g>
<mask id="mask6_2173_492" style="mask-type:luminance" maskUnits="userSpaceOnUse" x="43" y="12" width="22" height="31">
<path d="M47.3863 13.4485C45.8084 15.6135 44.7141 18.1606 44.1797 20.784C43.6198 23.4585 43.6198 26.2602 44.1797 28.9347C44.5105 30.412 44.9686 31.8638 45.6048 33.2647C46.3174 34.3854 47.1318 35.4042 48.0734 36.3721C49.9821 38.3588 52.2726 39.9125 54.8175 40.9823C57.3115 42.0266 60.0092 42.536 62.7068 42.485C63.4194 42.485 64.1065 42.4086 64.7936 42.3067C63.2921 42.0266 61.8415 41.5681 60.4927 40.9313C58.0241 39.7852 55.8609 38.0786 54.1813 35.9136C52.8579 34.2071 51.8908 32.2204 51.3309 30.1318C51.1782 29.979 51.051 29.8261 50.8983 29.6478C49.1677 27.6102 47.9462 25.1395 47.4117 22.4906C46.8519 19.8162 46.9282 17.0653 47.6408 14.4164C47.8444 13.6523 48.0989 12.9136 48.3788 12.2004C48.048 12.5825 47.7171 12.99 47.4117 13.3976" fill="white"/>
</mask>
<g mask="url(#mask6_2173_492)">
<path d="M58.5314 2.56126L29.8164 21.1605L49.8658 52.1662L78.5808 33.567L58.5314 2.56126Z" fill="url(#paint4_linear_2173_492)"/>
</g>
<mask id="mask7_2173_492" style="mask-type:luminance" maskUnits="userSpaceOnUse" x="42" y="0" width="24" height="34">
<path d="M56.1151 1.40089C53.4429 2.41971 50.9998 3.97342 48.9129 5.93466C46.8261 7.87043 45.1719 10.2901 44.0012 12.9136C42.856 15.5116 42.1943 18.3643 42.1688 21.1916C42.1179 24.0188 42.576 26.8461 43.6449 29.4695C44.1793 30.794 44.8156 32.0676 45.6045 33.2392C44.9937 31.8638 44.5102 30.412 44.1793 28.9092C43.6195 26.2348 43.6195 23.433 44.1793 20.7586C44.7138 18.1351 45.7827 15.588 47.386 13.423C47.6914 13.0155 48.0222 12.608 48.353 12.2259C49.0911 10.4175 50.109 8.71096 51.3561 7.20819C53.1375 5.06866 55.4025 3.33666 57.8965 2.11406C60.3142 0.916943 62.9355 0.305648 65.6077 0.101883H65.7349C65.2768 0.0509412 64.8188 0.0254707 64.3607 0C64.1316 0 63.928 0 63.699 0C61.1032 0 58.5328 0.483943 56.1151 1.40089Z" fill="white"/>
</mask>
<g mask="url(#mask7_2173_492)">
<path d="M50.9579 -11.4219L26.084 20.8114L56.9207 44.6475L81.7946 12.4142L50.9579 -11.4219Z" fill="url(#paint5_linear_2173_492)"/>
</g>
<mask id="mask8_2173_492" style="mask-type:luminance" maskUnits="userSpaceOnUse" x="65" y="0" width="24" height="35">
<path d="M65.7358 0.101845C67.9754 0.33108 70.164 0.916905 72.2254 1.83385C74.7195 2.95456 77.0099 4.63562 78.8422 6.67327C80.471 8.50716 81.7944 10.6722 82.6088 13.0155C84.2375 15.1041 85.4336 17.5747 86.0444 20.1472C86.6807 22.8726 86.7824 25.6744 86.2989 28.4507C85.9426 30.4629 85.2809 32.3732 84.3648 34.1816C85.51 32.6024 86.4516 30.8449 87.0878 29.011C88.0295 26.3366 88.4875 23.5094 88.3349 20.6567C88.1822 17.7785 87.4696 14.9512 86.2226 12.3278C84.9755 9.70428 83.1941 7.38645 81.0563 5.47615C78.944 3.56585 76.4246 2.16497 73.7524 1.19708C71.6146 0.432963 69.2733 0.0509033 66.9829 0.0509033C66.5757 0.0509033 66.143 0.0509033 65.7358 0.101845Z" fill="white"/>
</mask>
<g mask="url(#mask8_2173_492)">
<path d="M84.4255 -8.60363L52.7085 6.13123L69.7562 42.8881L101.473 28.1532L84.4255 -8.60363Z" fill="url(#paint6_linear_2173_492)"/>
</g>
<mask id="mask9_2173_492" style="mask-type:luminance" maskUnits="userSpaceOnUse" x="45" y="33" width="40" height="13">
<path d="M47.3609 36.4231C48.9642 38.7664 51.0002 40.7531 53.367 42.3068C55.7847 43.886 58.4823 44.9303 61.3072 45.4652C64.132 46.0001 67.0333 45.8982 69.8327 45.3124C72.6067 44.7266 75.2534 43.5549 77.5947 41.9248C79.8597 40.3456 81.8702 38.308 83.3463 35.9647C83.7026 35.3788 84.0334 34.793 84.3643 34.1817C83.9062 34.8185 83.4226 35.4298 82.8882 36.0156C81.0559 38.0278 78.8163 39.6579 76.3477 40.8296C73.8537 41.9757 71.1306 42.587 68.4075 42.6125C67.2114 42.6125 65.9898 42.5106 64.8192 42.3068C64.132 42.4087 63.4195 42.4597 62.7323 42.4851C60.0347 42.5361 57.3371 42.0267 54.843 40.9824C52.3235 39.9126 50.0077 38.3589 48.099 36.3722C47.1828 35.4043 46.3684 34.3855 45.6304 33.2648C46.1139 34.36 46.6992 35.4298 47.3864 36.4231" fill="white"/>
</mask>
<g mask="url(#mask9_2173_492)">
<path d="M45.6518 32.0984L45.2476 45.974L84.3211 47.1142L84.7253 33.2385L45.6518 32.0984Z" fill="url(#paint7_linear_2173_492)"/>
</g>
<mask id="mask10_2173_492" style="mask-type:luminance" maskUnits="userSpaceOnUse" x="48" y="0" width="35" height="14">
<path d="M65.6072 0.127441C62.935 0.305736 60.2883 0.942502 57.896 2.13962C55.402 3.36221 53.137 5.09422 51.3556 7.23375C50.1085 8.73652 49.0906 10.4431 48.3525 12.2515C49.7777 10.5704 51.5083 9.14405 53.4679 8.09975C55.8601 6.82622 58.5323 6.08757 61.2299 6.0621C62.706 6.0621 64.182 6.2404 65.6072 6.64793C66.5234 6.44416 67.465 6.31681 68.4066 6.26587C71.1297 6.13851 73.8528 6.72434 76.2959 7.89599C78.739 9.06764 80.8768 10.8251 82.5564 12.9392C82.5819 12.9647 82.6074 13.0156 82.6328 13.0411C81.8184 10.6978 80.4951 8.53276 78.8663 6.69887C77.0339 4.66122 74.7435 2.98015 72.2495 1.85945C70.1881 0.942502 67.9994 0.356677 65.7599 0.127441H65.6326" fill="white"/>
</mask>
<g mask="url(#mask10_2173_492)">
<path d="M82.5667 -1.01846L47.9233 0.119629L48.3834 14.1464L83.0267 13.0083L82.5667 -1.01846Z" fill="url(#paint8_linear_2173_492)"/>
</g>
<defs>
<linearGradient id="paint0_linear_2173_492" x1="73.675" y1="36.0269" x2="84.4374" y2="18.4307" gradientUnits="userSpaceOnUse">
<stop stop-color="#C30080"/>
<stop offset="0.5" stop-color="#004A9F"/>
<stop offset="1" stop-color="#010041"/>
</linearGradient>
<linearGradient id="paint1_linear_2173_492" x1="69.2161" y1="33.8791" x2="56.5169" y2="33.8791" gradientUnits="userSpaceOnUse">
<stop stop-color="#8FD3F5"/>
<stop offset="0.28" stop-color="#3EB6EE"/>
<stop offset="0.5" stop-color="#00A1E9"/>
<stop offset="0.65" stop-color="#0088CF"/>
<stop offset="0.98" stop-color="#00488E"/>
<stop offset="1" stop-color="#00448A"/>
</linearGradient>
<linearGradient id="paint2_linear_2173_492" x1="50.9581" y1="20.4432" x2="57.653" y2="10.4922" gradientUnits="userSpaceOnUse">
<stop stop-color="#8FD3F5"/>
<stop offset="0.28" stop-color="#3EB6EE"/>
<stop offset="0.5" stop-color="#00A1E9"/>
<stop offset="0.65" stop-color="#0088CF"/>
<stop offset="0.98" stop-color="#00488E"/>
<stop offset="1" stop-color="#00448A"/>
</linearGradient>
<linearGradient id="paint3_linear_2173_492" x1="72.5828" y1="12.9755" x2="78.9456" y2="26.6715" gradientUnits="userSpaceOnUse">
<stop stop-color="#8FD3F5"/>
<stop offset="0.28" stop-color="#3EB6EE"/>
<stop offset="0.5" stop-color="#00A1E9"/>
<stop offset="0.65" stop-color="#0088CF"/>
<stop offset="0.98" stop-color="#00488E"/>
<stop offset="1" stop-color="#00448A"/>
</linearGradient>
<linearGradient id="paint4_linear_2173_492" x1="47.4373" y1="23.1708" x2="59.9934" y2="42.5558" gradientUnits="userSpaceOnUse">
<stop stop-color="#C30080"/>
<stop offset="0.5" stop-color="#004A9F"/>
<stop offset="1" stop-color="#010041"/>
</linearGradient>
<linearGradient id="paint5_linear_2173_492" x1="47.9912" y1="25.0249" x2="63.4856" y2="4.97986" gradientUnits="userSpaceOnUse">
<stop stop-color="#F2954B"/>
<stop offset="0.17" stop-color="#EA3E3F"/>
<stop offset="0.3" stop-color="#E60037"/>
<stop offset="0.78" stop-color="#530D5E"/>
<stop offset="1" stop-color="#15136F"/>
</linearGradient>
<linearGradient id="paint6_linear_2173_492" x1="73.6097" y1="8.81012" x2="79.9725" y2="22.5061" gradientUnits="userSpaceOnUse">
<stop stop-color="#F2954B"/>
<stop offset="0.17" stop-color="#EA3E3F"/>
<stop offset="0.3" stop-color="#E60037"/>
<stop offset="0.78" stop-color="#530D5E"/>
<stop offset="1" stop-color="#15136F"/>
</linearGradient>
<linearGradient id="paint7_linear_2173_492" x1="74.4142" y1="41.4485" x2="57.6247" y2="40.9594" gradientUnits="userSpaceOnUse">
<stop stop-color="#F2954B"/>
<stop offset="0.17" stop-color="#EA3E3F"/>
<stop offset="0.3" stop-color="#E60037"/>
<stop offset="0.78" stop-color="#530D5E"/>
<stop offset="1" stop-color="#15136F"/>
</linearGradient>
<linearGradient id="paint8_linear_2173_492" x1="76.3673" y1="9.19444" x2="56.4766" y2="9.84679" gradientUnits="userSpaceOnUse">
<stop stop-color="#C30080"/>
<stop offset="0.5" stop-color="#004A9F"/>
<stop offset="1" stop-color="#010041"/>
</linearGradient>
</defs>
</svg>
