<svg width="64" height="62" viewBox="0 0 64 62" fill="none" xmlns="http://www.w3.org/2000/svg">
<g clip-path="url(#clip0_2080_356)">
<path d="M54.0334 51.5193C53.7794 51.5193 53.5271 51.6177 53.343 51.8128L51.9637 53.3399L45.8109 60.1777L45.5296 60.4865C45.1921 60.8648 45.2194 61.4383 45.5995 61.776C45.7683 61.9304 45.9934 62 46.2048 62H37.152C36.927 62 36.7156 61.9304 36.5332 61.776C36.1666 61.44 36.1257 60.8648 36.4633 60.4865L36.7446 60.1777L42.911 53.3399L44.2902 51.8128C44.4726 51.616 44.7267 51.5193 44.9807 51.5193H54.0334Z" fill="white"/>
<path d="M17.7952 51.5193C17.5412 51.5193 17.2889 51.6177 17.1047 51.8128L15.7255 53.3399L9.57272 60.1777L9.29142 60.4865C8.95386 60.8648 8.99648 61.4383 9.36132 61.776C9.54374 61.9304 9.75514 62 9.98018 62H0.915503C0.704102 62 0.479062 61.9304 0.310282 61.776C0.0988812 61.5944 0 61.3416 0 61.0888C0 60.8648 0.0852424 60.668 0.238679 60.4865L1.8293 58.7202L6.67278 53.3399L8.052 51.8128C8.23442 51.616 8.48844 51.5193 8.74246 51.5193H17.7952Z" fill="white"/>
<path d="M35.9143 51.5192C35.6603 51.5192 35.408 51.6176 35.2239 51.8128L33.8447 53.3398L27.6919 60.1776L27.4106 60.4864C27.073 60.8648 27.1003 61.4383 27.4805 61.7759C27.6492 61.9303 27.8743 61.9999 28.0857 61.9999H19.0329C18.8215 61.9999 18.5965 61.9303 18.4277 61.7759C18.0475 61.44 18.0203 60.8648 18.3578 60.4864L18.6391 60.1776L24.7919 53.3398L26.1711 51.8128C26.3535 51.6159 26.6076 51.5192 26.8616 51.5192H31.6624L32 51.2393L32.3376 51.5192H35.9126H35.9143Z" fill="white"/>
<path d="M43.0099 29.0734C40.7152 33.0386 36.6048 35.4072 32 35.4072C27.3952 35.4072 23.2848 33.0386 20.9765 29.0734C18.6818 25.1081 18.6818 20.3726 20.9765 16.4209L29.7616 1.27424C30.2253 0.475083 31.0709 0 32 0C32.9292 0 33.7731 0.47678 34.2385 1.27424L43.0099 16.4209C45.3183 20.3726 45.3183 25.1081 43.0099 29.0734Z" fill="#3BA8FC"/>
<path d="M63.0862 51.5193C62.8322 51.5193 62.5799 51.6177 62.3958 51.8128L61.0165 53.3399L54.8637 60.1777L54.5824 60.4865C54.2449 60.8648 54.2722 61.4383 54.6523 61.776C54.8211 61.9304 55.0461 62 55.2576 62H46.2048C45.9934 62 45.7684 61.9304 45.5996 61.776C45.2194 61.44 45.1921 60.8648 45.5297 60.4865L45.811 60.1777L51.9638 53.3399L53.343 51.8128C53.5254 51.616 53.7794 51.5193 54.0335 51.5193H63.0862Z" fill="#FF697A"/>
<path d="M44.9807 51.5193C44.7267 51.5193 44.4744 51.6177 44.2902 51.8128L42.911 53.3399L36.7446 60.1777L36.4633 60.4865C36.1257 60.8648 36.1684 61.4383 36.5332 61.776C36.7156 61.9304 36.927 62 37.152 62H28.0857C27.8743 62 27.6492 61.9304 27.4804 61.776C27.1003 61.44 27.073 60.8648 27.4105 60.4865L27.6918 60.1777L33.8446 53.3399L35.2239 51.8128C35.4063 51.616 35.6603 51.5193 35.9143 51.5193H44.9807Z" fill="#FF697A"/>
<path d="M8.74246 51.5193C8.48844 51.5193 8.23612 51.6177 8.052 51.8128L6.67278 53.3399L1.8293 58.7202L0.238679 60.4865C0.0835375 60.668 0 60.8648 0 61.0888V52.4304C0 51.9265 0.407459 51.5193 0.915503 51.5193H8.74246Z" fill="#FF697A"/>
<path d="M26.8616 51.5193C26.6075 51.5193 26.3552 51.6177 26.1711 51.8128L24.7919 53.3399L18.6391 60.1777L18.3578 60.4865C18.0202 60.8648 18.0475 61.4383 18.4277 61.776C18.5965 61.9304 18.8215 62 19.0329 62H9.98186C9.75682 62 9.54542 61.9304 9.363 61.776C8.99646 61.44 8.95554 60.8648 9.2931 60.4865L9.5744 60.1777L15.7272 53.3399L17.1064 51.8128C17.2888 51.616 17.5429 51.5193 17.7969 51.5193H26.8633H26.8616Z" fill="#FF697A"/>
<path d="M64 52.4304V61.0888C64 61.5927 63.5926 62 63.0845 62H55.2575C55.0461 62 54.8211 61.9304 54.6523 61.776C54.2721 61.44 54.2432 60.8648 54.5824 60.4865L54.8637 60.1777L61.0165 53.3399L62.3957 51.8128C62.5782 51.616 62.8322 51.5193 63.0862 51.5193C63.2976 51.5193 63.5227 51.5888 63.6914 51.7433C63.9028 51.9248 64.0017 52.1776 64.0017 52.4304H64Z" fill="white"/>
<path d="M32 51.2394L31.6624 51.5193H29.4376L9.40394 35.1969C9.01012 34.8745 8.95386 34.3146 9.26243 33.9226C9.58635 33.5307 10.1643 33.4747 10.5581 33.7971L32 51.2411V51.2394Z" fill="#3A5969"/>
<path d="M54.9336 34.4961V37.9846C54.9336 38.4885 54.5262 38.8957 54.0181 38.8957C53.5101 38.8957 53.1026 38.4885 53.1026 37.9846V36.4151L34.5607 51.5193H32.3359L31.9983 51.2394L51.454 35.4072H50.1174C49.6111 35.4072 49.2019 35.0017 49.2019 34.4961C49.2019 33.9905 49.6094 33.585 50.1174 33.585H54.0164C54.1016 33.585 54.1852 33.5985 54.2704 33.6274C54.3557 33.641 54.4256 33.6834 54.4955 33.7258C54.5091 33.7258 54.5245 33.7394 54.5245 33.7394C54.5807 33.7818 54.637 33.8242 54.6796 33.8802C54.7648 33.9498 54.8211 34.0482 54.862 34.1466C54.8756 34.1602 54.891 34.1754 54.891 34.189C54.9046 34.2314 54.9183 34.2738 54.9183 34.3146C54.9319 34.3705 54.9319 34.4265 54.9319 34.4961H54.9336Z" fill="#3A5969"/>
</g>
<defs>
<clipPath id="clip0_2080_356">
<rect width="64" height="62" fill="white"/>
</clipPath>
</defs>
</svg>
