<svg width="38" height="36" viewBox="0 0 38 36" fill="none" xmlns="http://www.w3.org/2000/svg">
<g clip-path="url(#clip0_361_84)">
<path d="M36.9796 10.95H1.34983C1.07924 10.95 0.819705 10.8473 0.628368 10.6644C0.437031 10.4816 0.32959 10.2336 0.32959 9.97504C0.32959 9.71645 0.437031 9.46843 0.628368 9.28558C0.819705 9.10274 1.07924 9 1.34983 9H36.9796C37.2502 9 37.5097 9.10274 37.701 9.28558C37.8924 9.46843 38 9.71645 38 9.97504C38 10.2336 37.8924 10.4816 37.701 10.6644C37.5097 10.8473 37.2502 10.95 36.9796 10.95Z" fill="white"/>
<path d="M36.9796 26.95H1.34983C1.07924 26.95 0.819705 26.8473 0.628368 26.6645C0.437031 26.4816 0.32959 26.2336 0.32959 25.975C0.32959 25.7165 0.437031 25.4684 0.628368 25.2856C0.819705 25.1027 1.07924 25 1.34983 25H36.9796C37.2502 25 37.5097 25.1027 37.701 25.2856C37.8924 25.4684 38 25.7165 38 25.975C38 26.2336 37.8924 26.4816 37.701 26.6645C37.5097 26.8473 37.2502 26.95 36.9796 26.95Z" fill="white"/>
</g>
<defs>
<clipPath id="clip0_361_84">
<rect width="37.6714" height="36" fill="white" transform="translate(0.328613)"/>
</clipPath>
</defs>
</svg>
