<svg width="100" height="100" viewBox="0 0 100 100" fill="none" xmlns="http://www.w3.org/2000/svg">
<path d="M50.1139 0H49.8861C22.3348 0 0 22.3348 0 49.8861V50.1139C0 77.6652 22.3348 100 49.8861 100H50.1139C77.6652 100 100 77.6652 100 50.1139V49.8861C100 22.3348 77.6652 0 50.1139 0Z" fill="url(#paint0_linear_2080_18241)"/>
<path d="M65.4733 20.3447H34.5305C25.982 20.3447 19.0276 27.2991 19.0276 35.8477V64.1558C19.0276 72.7043 25.982 79.6587 34.5305 79.6587H65.4733C74.0218 79.6587 80.9762 72.7043 80.9762 64.1558V35.8477C80.9762 27.2991 74.0218 20.3447 65.4733 20.3447ZM24.4965 35.8477C24.4965 30.3156 28.9985 25.8137 34.5305 25.8137H65.4733C71.0053 25.8137 75.5073 30.3156 75.5073 35.8477V64.1558C75.5073 69.6878 71.0053 74.1898 65.4733 74.1898H34.5305C28.9985 74.1898 24.4965 69.6878 24.4965 64.1558V35.8477Z" fill="white"/>
<path d="M50.0019 64.4188C57.9513 64.4188 64.4222 57.9514 64.4222 49.9985C64.4222 42.0456 57.9548 35.5781 50.0019 35.5781C42.049 35.5781 35.5815 42.0456 35.5815 49.9985C35.5815 57.9514 42.049 64.4188 50.0019 64.4188ZM50.0019 41.0506C54.9383 41.0506 58.9533 45.0656 58.9533 50.002C58.9533 54.9384 54.9383 58.9534 50.0019 58.9534C45.0655 58.9534 41.0505 54.9384 41.0505 50.002C41.0505 45.0656 45.0655 41.0506 50.0019 41.0506Z" fill="white"/>
<path d="M65.7572 37.9075C67.8978 37.9075 69.6426 36.1662 69.6426 34.0221C69.6426 31.878 67.9013 30.1367 65.7572 30.1367C63.613 30.1367 61.8718 31.878 61.8718 34.0221C61.8718 36.1662 63.613 37.9075 65.7572 37.9075Z" fill="white"/>
<defs>
<linearGradient id="paint0_linear_2080_18241" x1="14.6095" y1="85.3905" x2="85.3905" y2="14.613" gradientUnits="userSpaceOnUse">
<stop stop-color="#FAAD4F"/>
<stop offset="0.35" stop-color="#DD2A7B"/>
<stop offset="0.62" stop-color="#9537B0"/>
<stop offset="1" stop-color="#515BD4"/>
</linearGradient>
</defs>
</svg>
