<svg width="68" height="54" viewBox="0 0 68 54" fill="none" xmlns="http://www.w3.org/2000/svg">
<g clip-path="url(#clip0_2080_371)">
<path d="M4.51892 14.4756V49.7382C4.51892 52.0948 6.41039 54.0001 8.74548 54.0001H59.2545C61.5754 54.0001 63.4669 52.0928 63.4669 49.7382V14.4756H4.51892ZM20.3504 24.4411H18.3056V26.5172C18.3056 27.0743 17.8439 27.5237 17.3075 27.5237C16.7711 27.5237 16.3093 27.0743 16.3093 26.5172V24.4411H14.2505C13.698 24.4411 13.2523 23.9917 13.2523 23.4346C13.2523 22.8774 13.698 22.4281 14.2505 22.4281H16.3093V20.3662C16.3093 19.8091 16.755 19.3597 17.3075 19.3597C17.86 19.3597 18.3056 19.8091 18.3056 20.3662V22.4281H20.3504C20.9029 22.4281 21.3485 22.8774 21.3485 23.4346C21.3485 23.9917 20.9029 24.4411 20.3504 24.4411ZM53.7353 24.4411H47.6476C47.095 24.4411 46.6494 23.9917 46.6494 23.4346C46.6494 22.8774 47.095 22.4281 47.6476 22.4281H53.7353C54.2879 22.4281 54.7335 22.8774 54.7335 23.4346C54.7335 23.9917 54.2879 24.4411 53.7353 24.4411Z" fill="white"/>
<path d="M3.25864 6.85034H64.7414C66.5401 6.85034 68 8.3225 68 10.1363V11.1895C68 13.0033 66.5401 14.4755 64.7414 14.4755H3.25864C1.45994 14.4755 0 13.0033 0 11.1895V10.1363C0 8.3225 1.45994 6.85034 3.25864 6.85034Z" fill="#FF697A"/>
<path d="M21.6873 3.28591V6.8504H12.9116V3.28591C12.9116 1.47215 14.3715 0 16.1702 0H18.4307C20.2294 0 21.6893 1.47215 21.6893 3.28591H21.6873Z" fill="#00585C"/>
<path d="M55.0884 3.28591V6.8504H46.2965V3.28591C46.2965 1.47215 47.7564 0 49.5552 0H51.8298C53.6285 0 55.0884 1.47215 55.0884 3.28591Z" fill="#00585C"/>
<path d="M54.7355 23.4345C54.7355 23.9916 54.2899 24.441 53.7374 24.441H47.6496C47.0971 24.441 46.6514 23.9916 46.6514 23.4345C46.6514 22.8774 47.0971 22.428 47.6496 22.428H53.7374C54.2899 22.428 54.7355 22.8774 54.7355 23.4345Z" fill="#3A5969"/>
<path d="M21.3506 23.4345C21.3506 23.9916 20.9049 24.441 20.3524 24.441H18.3077V26.5171C18.3077 27.0742 17.8459 27.5236 17.3095 27.5236C16.7732 27.5236 16.3114 27.0742 16.3114 26.5171V24.441H14.2526C13.7 24.441 13.2544 23.9916 13.2544 23.4345C13.2544 22.8773 13.7 22.428 14.2526 22.428H16.3114V20.3661C16.3114 19.809 16.757 19.3596 17.3095 19.3596C17.8621 19.3596 18.3077 19.809 18.3077 20.3661V22.428H20.3524C20.9049 22.428 21.3506 22.8773 21.3506 23.4345Z" fill="#3A5969"/>
<path d="M39.6744 35.5899L33.627 46.2406C33.508 46.4521 33.2882 46.572 33.0603 46.572C33.0099 46.572 32.9514 46.5619 32.901 46.5517C32.6127 46.4724 32.413 46.2101 32.413 45.9193V38.1966H28.8922C28.6644 38.1966 28.4547 38.0767 28.3357 37.8754C28.2167 37.6639 28.2167 37.4239 28.3357 37.2226L34.3831 26.5617C34.5223 26.3116 34.8207 26.1917 35.1091 26.2608C35.3873 26.332 35.587 26.5922 35.587 26.8932V34.6159H39.1078C39.3356 34.6159 39.5554 34.7358 39.6643 34.9371C39.7833 35.1385 39.7833 35.3886 39.6744 35.5899Z" fill="#FF697A"/>
</g>
<defs>
<clipPath id="clip0_2080_371">
<rect width="68" height="54" fill="white"/>
</clipPath>
</defs>
</svg>
