<svg width="28" height="28" viewBox="0 0 28 28" fill="none" xmlns="http://www.w3.org/2000/svg">
<path d="M2.33337 14C2.33337 20.4433 7.55672 25.6667 14 25.6667C20.4433 25.6667 25.6667 20.4433 25.6667 14C25.6667 7.55667 20.4433 2.33333 14 2.33333C7.55672 2.33333 2.33337 7.55667 2.33337 14Z" stroke="white" stroke-width="1.5" stroke-linecap="round" stroke-linejoin="round"/>
<path d="M15.1666 2.39087C15.1666 2.39087 18.6666 6.99993 18.6666 13.9999C18.6666 20.9999 15.1666 25.609 15.1666 25.609" stroke="white" stroke-width="1.5" stroke-linecap="round" stroke-linejoin="round"/>
<path d="M12.8334 25.609C12.8334 25.609 9.33337 20.9999 9.33337 13.9999C9.33337 6.99993 12.8334 2.39087 12.8334 2.39087" stroke="white" stroke-width="1.5" stroke-linecap="round" stroke-linejoin="round"/>
<path d="M3.06787 18.0833H24.9321" stroke="white" stroke-width="1.5" stroke-linecap="round" stroke-linejoin="round"/>
<path d="M3.06787 9.91666H24.9321" stroke="white" stroke-width="1.5" stroke-linecap="round" stroke-linejoin="round"/>
</svg>
