<svg width="72" height="56" viewBox="0 0 72 56" fill="none" xmlns="http://www.w3.org/2000/svg">
<g clip-path="url(#clip0_2249_283)">
<path d="M0.0347557 55.5304C0.148167 55.8098 0.503273 56 0.914154 56H62.0797C62.5891 56 63 55.7101 63 55.3507V20.6467C63 20.4158 62.8308 20.206 62.5464 20.0866C62.2638 19.9764 61.9087 19.9659 61.6261 20.0866L51.3931 24.116V24.1265C50.9971 24.9267 50.3594 25.6756 49.48 26.3367C48.3607 27.1762 46.9719 27.7467 45.5124 28.0563L42.3091 31.2554L35.6773 33.3357C35.4226 33.4158 35.2237 33.5758 35.1679 33.7752L33.991 37.1645L31.9218 38.3148C31.5536 39.3248 30.8304 40.2849 29.7391 41.0942C29.5271 41.2543 29.3003 41.4038 29.0735 41.5441L28.3075 41.9639C27.1027 42.5541 25.7418 42.9135 24.34 43.0342L19.1398 48.7727L9.04998 50.9829C8.97933 51.0026 8.89381 51.0222 8.83803 51.0524L0.419609 54.8025C0.0793762 54.952 -0.0767937 55.2524 0.0366173 55.5317L0.0347557 55.5304Z" fill="#9D5016"/>
<path d="M6.46855 55.4174C6.5 55.5 6.45535 56 6.8271 56H62.1673C62.6283 56 63 55.7423 63 55.4229V24.5748C63 24.3696 62.8469 24.1831 62.5896 24.077C62.3339 23.9791 62.0126 23.9697 61.7569 24.077L52.4985 27.6587V27.668C52.1402 28.3793 51.5632 29.045 50.7676 29.6326C49.7549 30.3788 48.4984 30.886 47.1779 31.1611L44.2796 34.0048L38.2795 35.854C38.049 35.9251 37.869 36.0674 37.8186 36.2446L36.7538 39.2573L34.8816 40.2798C34.5485 41.1776 33.8942 42.0311 32.9068 42.7504C32.715 42.8927 32.5098 43.0256 32.3046 43.1503L31.6115 43.5234C30.5215 44.0481 29.2902 44.3676 28.0219 44.4748L21.5 51.5L12.1918 53.4382C12.1278 53.4557 12.0505 53.4732 12 53.5L7 54.5C6.62035 54.5645 6.36594 55.1691 6.46855 55.4174Z" fill="#ECC660"/>
<path d="M71.5137 5.87401C71.485 6.26061 71.246 6.58608 70.8903 6.73533L61.9294 10.2256V19.6407C61.6186 19.567 61.2917 19.522 60.9647 19.522C60.6378 19.522 60.3126 19.567 60 19.6407V0.959649C60 0.632384 60.1779 0.321303 60.4599 0.143286C60.742 -0.0347318 61.0977 -0.0491171 61.3941 0.112717L70.9784 4.96774C71.3197 5.14576 71.5263 5.50179 71.5119 5.87401H71.5137Z" fill="#FF697A"/>
<path d="M64.8614 22.4565C64.8614 24.6251 63.0955 26.3909 60.9307 26.3909C59.0911 26.3909 57.5479 25.1286 57.1186 23.4203C57.0449 23.1092 57 22.782 57 22.4547C57 22.1275 57.0449 21.802 57.1186 21.4891C57.4743 20.0937 58.5719 18.9951 59.966 18.6372C60.2786 18.5635 60.6038 18.5186 60.9307 18.5186C61.2577 18.5186 61.5828 18.5635 61.8954 18.6372C63.6021 19.067 64.8632 20.6116 64.8632 22.4529L64.8614 22.4565Z" fill="#00585C"/>
</g>
<defs>
<clipPath id="clip0_2249_283">
<rect width="72" height="56" fill="white"/>
</clipPath>
</defs>
</svg>
