<svg width="64" height="64" viewBox="0 0 64 64" fill="none" xmlns="http://www.w3.org/2000/svg">
<path d="M32.0049 4.5C34.6678 4.50009 37.061 5.87653 38.4072 8.20898L61.4932 48.2051H61.4922C62.8345 50.5096 62.8348 53.2857 61.4941 55.5908C60.1737 57.9287 57.7778 59.3047 55.0898 59.3047H8.91895C6.2306 59.3046 3.83285 57.9289 2.48926 55.5947L2.48828 55.5938C1.17026 53.2889 1.17038 50.5119 2.48828 48.207L2.48926 48.2051L25.5752 8.20898C26.9225 5.87458 29.344 4.5 32.0049 4.5ZM32.0049 8.82812C30.8764 8.82812 29.8926 9.4007 29.3398 10.3701L29.3389 10.373L6.25293 50.3682V50.3691C5.70508 51.3149 5.7023 52.46 6.25488 53.4346V53.4355C6.80344 54.4056 7.78905 54.9765 8.91895 54.9766H55.0898C56.1885 54.9766 57.1806 54.4058 57.7588 53.4277L57.7822 53.3867C58.3118 52.4192 58.3023 51.3002 57.7607 50.3701L57.7598 50.3691L34.6475 10.373L34.6455 10.3701C34.0913 9.39524 33.1303 8.82821 32.0049 8.82812Z" fill="#FF697A" stroke="#FF697A"/>
<path d="M58.1893 50.1221L35.077 10.126C34.435 8.99995 33.282 8.33105 32.0014 8.33105C30.7207 8.33105 29.5409 8.99659 28.9023 10.126L5.81688 50.1221C5.17823 51.2246 5.17823 52.5557 5.81688 53.6851C6.45888 54.8111 7.61181 55.48 8.91599 55.48H55.0901C56.3708 55.48 57.5237 54.8144 58.1893 53.6851C58.8313 52.559 58.8313 51.2246 58.1893 50.1221ZM33.6686 48.3271C33.6686 49.2481 32.9257 49.991 32.0047 49.991C31.0838 49.991 30.3409 49.2481 30.3409 48.3271V47.7893C30.3409 46.8683 31.0838 46.1255 32.0047 46.1255C32.9257 46.1255 33.6686 46.8683 33.6686 47.7893V48.3271ZM33.6686 40.9222C33.6686 41.8432 32.9257 42.586 32.0047 42.586C31.0838 42.586 30.3409 41.8432 30.3409 40.9222V17.7629C30.3409 16.8419 31.0838 16.099 32.0047 16.099C32.9257 16.099 33.6686 16.8419 33.6686 17.7629V40.9256V40.9222Z" fill="white"/>
<path d="M32.005 44.6255C33.202 44.6256 34.1691 45.5925 34.1691 46.7896V47.3267C34.1691 48.5237 33.202 49.4906 32.005 49.4907C30.8079 49.4907 29.8409 48.5238 29.8409 47.3267V46.7896C29.8409 45.5924 30.8079 44.6255 32.005 44.6255Z" fill="#3A5969" stroke="#3A5969"/>
<path d="M32 17.75C32.6 17.75 33.1526 17.9244 33.5615 18.2197C33.9702 18.5149 34.2499 18.9445 34.25 19.4443V39.5557C34.2499 40.0555 33.9702 40.4851 33.5615 40.7803C33.1526 41.0756 32.6 41.25 32 41.25C31.4 41.25 30.8474 41.0756 30.4385 40.7803C30.0298 40.4851 29.7501 40.0555 29.75 39.5557V19.4443C29.7501 18.9445 30.0298 18.5149 30.4385 18.2197C30.8474 17.9244 31.4 17.75 32 17.75Z" fill="#3A5969" stroke="#3A5969" stroke-width="0.5"/>
</svg>
