<svg width="100" height="100" viewBox="0 0 100 100" fill="none" xmlns="http://www.w3.org/2000/svg">
<path d="M50.1139 0H49.8861C22.3348 0 0 22.3348 0 49.8861V50.1139C0 77.6652 22.3348 100 49.8861 100H50.1139C77.6652 100 100 77.6652 100 50.1139V49.8861C100 22.3348 77.6652 0 50.1139 0Z" fill="black"/>
<path d="M75.3528 39.7154V49.1573C73.7027 48.9961 71.5586 48.6212 69.1867 47.7524C66.0896 46.6172 63.7843 45.0652 62.2743 43.8635V62.947L62.2358 62.8874C62.2603 63.2658 62.2743 63.6512 62.2743 64.0401C62.2743 73.517 54.5631 81.2317 45.0827 81.2317C35.6023 81.2317 27.8911 73.517 27.8911 64.0401C27.8911 54.5631 35.6023 46.845 45.0827 46.845C46.0111 46.845 46.9221 46.9185 47.8119 47.0622V56.3674C46.9571 56.0626 46.0392 55.898 45.0827 55.898C40.5948 55.898 36.9406 59.5486 36.9406 64.0401C36.9406 68.5315 40.5948 72.1822 45.0827 72.1822C49.5707 72.1822 53.2248 68.528 53.2248 64.0401C53.2248 63.8719 53.2213 63.7037 53.2108 63.5356V26.4512H62.6457C62.6807 27.25 62.7123 28.0558 62.7473 28.8546C62.8104 30.4276 63.3709 31.9376 64.3484 33.1744C65.494 34.6283 67.1862 36.317 69.5616 37.6658C71.7863 38.9271 73.8744 39.4666 75.3528 39.7224V39.7154Z" fill="#FF004F"/>
<path d="M72.1084 32.05V41.4919C70.4583 41.3307 68.3142 40.9559 65.9423 40.087C62.8452 38.9519 60.5399 37.3998 59.0299 36.1981V55.2816L58.9914 55.2221C59.0159 55.6004 59.0299 55.9858 59.0299 56.3747C59.0299 65.8517 51.3188 73.5663 41.8383 73.5663C32.3579 73.5663 24.6467 65.8517 24.6467 56.3747C24.6467 46.8978 32.3579 39.1796 41.8383 39.1796C42.7668 39.1796 43.6777 39.2532 44.5675 39.3968V48.7021C43.7127 48.3973 42.7948 48.2326 41.8383 48.2326C37.3504 48.2326 33.6962 51.8833 33.6962 56.3747C33.6962 60.8662 37.3504 64.5168 41.8383 64.5168C46.3263 64.5168 49.9804 60.8627 49.9804 56.3747C49.9804 56.2066 49.9769 56.0384 49.9664 55.8702V18.7788H59.4013C59.4363 19.5776 59.4679 20.3834 59.5029 21.1822C59.566 22.7553 60.1265 24.2653 61.104 25.502C62.2496 26.9559 63.9418 28.6446 66.3172 29.9935C68.5419 31.2512 70.63 31.7943 72.1084 32.05Z" fill="#00F7EF"/>
<path d="M74.1724 36.1773V45.6192C72.5223 45.458 70.3781 45.0831 68.0063 44.2143C64.9092 43.0792 62.6039 41.5271 61.0939 40.3254V59.4089L61.0554 59.3493C61.0799 59.7277 61.0939 60.1131 61.0939 60.502C61.0939 69.9789 53.3827 77.6936 43.9023 77.6936C34.4219 77.6936 26.7107 69.9789 26.7107 60.502C26.7107 51.0251 34.4219 43.3069 43.9023 43.3069C44.8307 43.3069 45.7416 43.3805 46.6315 43.5241V52.8294C45.7767 52.5245 44.8587 52.3599 43.9023 52.3599C39.4143 52.3599 35.7602 56.0105 35.7602 60.502C35.7602 64.9935 39.4143 68.6441 43.9023 68.6441C48.3903 68.6441 52.0444 64.99 52.0444 60.502C52.0444 60.3338 52.0409 60.1657 52.0304 59.9975V22.9131H61.4653C61.5003 23.7119 61.5319 24.5177 61.5669 25.3165C61.6299 26.8895 62.1905 28.3995 63.168 29.6363C64.3136 31.0902 66.0058 32.7789 68.3811 34.1277C70.6059 35.3855 72.694 35.9285 74.1724 36.1843V36.1773Z" fill="white"/>
</svg>
