<svg width="68" height="59" viewBox="0 0 68 59" fill="none" xmlns="http://www.w3.org/2000/svg">
<g clip-path="url(#clip0_2080_404)">
<rect x="1.1333" y="1.13452" width="65.7333" height="44.25" fill="white"/>
<path d="M67.0176 0H0.982432C0.437246 0 0 0.435855 0 0.979306V45.4292C0 45.9709 0.437246 46.4085 0.982432 46.4085H67.0176C67.5609 46.4085 68 45.9727 68 45.4292V0.979306C68 0.437679 67.5628 0 67.0176 0ZM64.9018 43.3153H3.0982V3.09323H64.9018V43.3153Z" fill="#3A5969"/>
<path d="M17.8438 10.2913V16.4261C17.8438 16.9732 17.4029 17.4127 16.8541 17.4127H10.7162C10.1673 17.4127 9.71179 16.9714 9.71179 16.4261V10.2913C9.71179 9.74419 10.1692 9.30469 10.7162 9.30469H16.8559C17.4048 9.30469 17.8457 9.74419 17.8457 10.2913H17.8438Z" fill="#3BA8FC"/>
<path d="M23.1768 9.30273H29.3311C29.8782 9.30273 30.3209 9.74588 30.3209 10.2893V16.4241C30.3209 16.9694 29.8782 17.4107 29.3311 17.4107H23.1768C22.6297 17.4107 22.187 16.9676 22.187 16.4241V10.2912C22.187 9.74588 22.6316 9.30456 23.1768 9.30456V9.30273Z" fill="#FF697A"/>
<path d="M17.8438 22.2107V28.3455C17.8438 28.8926 17.4029 29.3321 16.8541 29.3321H10.7162C10.1673 29.3321 9.71179 28.8926 9.71179 28.3455V22.2107C9.71179 21.6636 10.1692 21.2241 10.7162 21.2241H16.8559C17.4048 21.2241 17.8457 21.6636 17.8457 22.2107H17.8438Z" fill="#FF697A"/>
<path d="M23.1768 21.2241H29.3311C29.8782 21.2241 30.3209 21.6654 30.3209 22.2107V28.3455C30.3209 28.8908 29.8782 29.3321 29.3311 29.3321H23.1768C22.6297 29.3321 22.187 28.889 22.187 28.3455V22.2107C22.187 21.6654 22.6316 21.2241 23.1768 21.2241Z" fill="#3BA8FC"/>
<path d="M51.1484 59C48.7207 59 46.4467 58.0772 44.7416 56.4031C43.02 54.7162 41.1155 53.332 39.0793 52.2889C38.6037 52.0372 38.0768 51.7911 37.4328 51.512C34.7874 50.3613 31.9663 49.7176 29.0446 49.6008L28.1646 49.5662L28.3366 48.7036C28.4702 48.0252 28.8361 47.3942 29.3611 46.9292C29.7929 46.579 30.2283 46.3638 30.7131 46.2489L32.7054 45.7657C33.4226 45.6015 34.1544 45.5177 34.888 45.5177C36.2564 45.5177 37.6304 45.8113 38.8616 46.3638L42.0211 47.8027C42.0614 47.8082 42.0943 47.8118 42.1236 47.8118C42.2224 47.8118 42.2699 47.7826 42.3065 47.7352C42.3541 47.6678 42.3541 47.5419 42.2846 47.4635L30.9802 34.262L26.9627 29.6117L26.7395 29.3418C26.2711 28.7965 26.0278 28.0707 26.0717 27.3175C26.1339 26.557 26.4797 25.8841 27.0432 25.4008C27.528 24.9723 28.1793 24.7297 28.869 24.7297C28.9477 24.7297 29.0263 24.7334 29.105 24.7407C29.8825 24.8045 30.5668 25.1528 31.0351 25.7236L42.6578 39.2953C42.7145 39.3592 42.7932 39.3701 42.8353 39.3701C43.0658 39.2625 43.095 39.1348 43.0347 39.0236L41.5729 36.3319C40.9692 35.2541 41.2235 33.8663 42.1803 33.0402C42.6139 32.6663 43.1646 32.4493 43.7701 32.4055L43.9439 32.4001C44.4708 32.4001 44.9995 32.577 45.4349 32.8979L47.795 34.49C47.8755 34.51 47.9285 34.5173 47.9688 34.5173C48.0218 34.5173 48.0493 34.5027 48.0731 34.4845C48.1298 34.4353 48.181 34.3222 48.1316 34.2146L47.4071 32.5879C47.054 31.8365 47.2535 30.9502 47.9102 30.3959C48.2066 30.1241 48.6292 29.9618 49.0793 29.9618H49.0903C49.5202 29.9618 49.8952 30.0877 50.2136 30.312L52.8187 32.1995L53.0675 32.2104C53.148 32.1612 53.1901 32.0809 53.1737 32.0007L52.8992 30.3247C52.6943 29.6937 52.8736 29.0245 53.3548 28.6014C53.7024 28.3388 54.0646 28.2148 54.4214 28.2148C54.9556 28.2458 55.3434 28.4445 55.6178 28.7764L62.7986 37.1379C66.8344 41.8722 66.2764 48.9881 61.5527 53.0056L57.0668 56.8298C55.4367 58.2286 53.3346 58.9982 51.1539 58.9982L51.1484 59Z" fill="#ECC660"/>
</g>
<defs>
<clipPath id="clip0_2080_404">
<rect width="68" height="59" fill="white"/>
</clipPath>
</defs>
</svg>
