<svg width="22" height="19" viewBox="0 0 22 19" fill="none" xmlns="http://www.w3.org/2000/svg">
<path d="M11.8659 1.00017L21.3922 17.5002C21.6684 17.9785 21.5045 18.5901 21.0262 18.8662C20.8742 18.954 20.7017 19.0002 20.5262 19.0002H1.47363C0.921353 19.0002 0.473633 18.5525 0.473633 18.0002C0.473633 17.8246 0.519843 17.6522 0.607613 17.5002L10.1339 1.00017C10.41 0.521871 11.0216 0.358001 11.4999 0.634141C11.6519 0.721911 11.7782 0.848151 11.8659 1.00017ZM3.20568 17.0002H18.7941L10.9999 3.50017L3.20568 17.0002ZM9.9999 14.0002H11.9999V16.0002H9.9999V14.0002ZM9.9999 7.00017H11.9999V12.0002H9.9999V7.00017Z" fill="#00585C"/>
</svg>
