<svg width="100" height="100" viewBox="0 0 100 100" fill="none" xmlns="http://www.w3.org/2000/svg">
<path d="M99.993 50.0018C99.993 75.2549 81.2745 96.1321 56.9577 99.52C54.684 99.8353 52.3578 100 49.9965 100C47.2709 100 44.5943 99.7828 41.9878 99.3624C18.1825 95.5296 0 74.887 0 50.0018C0 22.3873 22.3865 0 50 0C77.6135 0 100 22.3873 100 50.0018H99.993Z" fill="#1C1C1B"/>
<path d="M20.2774 22.0508L43.3366 52.8815L20.1338 77.9489H25.3573L45.6733 56.0031L62.0866 77.9489H79.8591L55.5037 45.384L77.102 22.0508H71.8785L53.1705 42.2624L38.0535 22.0508H20.2809H20.2774ZM27.9568 25.8976H36.1196L72.1728 74.1021H64.0099L27.9568 25.8976Z" fill="white"/>
</svg>
