<svg width="100" height="100" viewBox="0 0 100 100" fill="none" xmlns="http://www.w3.org/2000/svg">
<path d="M100 50C100 22.3858 77.6143 0 50 0C22.3858 0 0 22.3858 0 50C0 77.6142 22.3858 100 50 100C77.6143 100 100 77.6142 100 50Z" fill="#FF0209"/>
<path d="M71.2247 72.1451C69.735 72.3067 68.2102 72.3348 66.7486 72.3313C55.3474 72.3208 43.9462 72.3102 32.5485 72.3032C28.9613 72.3032 25.0544 72.1873 22.2822 69.907C19.1588 67.3317 18.5088 62.8661 18.2558 58.8256C17.9045 53.2884 17.8764 47.7336 18.1645 42.1929C18.3226 39.1502 18.6001 36.0338 19.9107 33.2792C20.8523 31.3012 22.4228 29.5234 24.4325 28.5888C26.7689 27.5031 29.2143 27.6964 31.7299 27.6929C37.752 27.6858 43.7741 27.6823 49.7961 27.6753C56.0571 27.6683 62.3216 27.6647 68.5826 27.6577C71.5409 27.6577 74.7171 27.7174 77.1309 29.4285C80.2473 31.6349 81.094 35.8335 81.484 39.6316C82.2043 46.6269 82.2148 53.6959 81.5121 60.6912C81.2205 63.5758 80.7356 66.6255 78.8348 68.8144C76.9516 70.9857 74.1585 71.8219 71.2282 72.1416L71.2247 72.1451Z" fill="white"/>
<path d="M60.1961 50.0005L43.2051 40.1909V59.8101L60.1961 50.0005Z" fill="#FF0209"/>
</svg>
